HIERARCHY
ROOT Hips
{
    OFFSET   0.000000   0.000000   0.000000
    CHANNELS 6 Xposition Yposition Zposition Zrotation Xrotation Yrotation
    JOINT Chest
    {
        OFFSET   0.000000   8.007230   0.000000
        CHANNELS 3 Zrotation Xrotation Yrotation
        JOINT Chest2
        {
            OFFSET   0.000000  22.077100   0.000000
            CHANNELS 3 Zrotation Xrotation Yrotation
            JOINT Neck
            {
                OFFSET   0.000000  23.255100   0.000000
                CHANNELS 3 Zrotation Xrotation Yrotation
                JOINT Head
                {
                    OFFSET   0.000000  14.370100   1.956600
                    CHANNELS 3 Zrotation Xrotation Yrotation
                    End Site
                    {
                        OFFSET   0.000000  19.566000   0.000000
                    }
                }
            }
            JOINT LeftCollar
            {
                OFFSET   3.911900  19.017000  -0.467063
                CHANNELS 3 Zrotation Xrotation Yrotation
                JOINT LeftShoulder
                {
                    OFFSET  10.383700   0.000000   0.000000
                    CHANNELS 3 Zrotation Xrotation Yrotation
                    JOINT LeftElbow
                    {
                        OFFSET  26.662100   0.001193   0.000980
                        CHANNELS 3 Zrotation Xrotation Yrotation
                        JOINT LeftWrist
                        {
                            OFFSET  28.869000  -0.000059  -0.000082
                            CHANNELS 3 Zrotation Xrotation Yrotation
                            JOINT LeftFinger0
                            {
                                OFFSET   2.044650  -2.323450   3.252850
                                CHANNELS 3 Zrotation Xrotation Yrotation
                                JOINT LeftFinger01
                                {
                                    OFFSET   3.088130   0.000000   0.000000
                                    CHANNELS 3 Zrotation Xrotation Yrotation
                                    JOINT LeftFinger02
                                    {
                                        OFFSET   2.639460   0.000000   0.000000
                                        CHANNELS 3 Zrotation Xrotation Yrotation
                                        End Site
                                        {
                                            OFFSET   2.582190   0.000000   0.000000
                                        }
                                    }
                                }
                            }
                            JOINT LeftFinger1
                            {
                                OFFSET   8.364480   0.000000   3.252850
                                CHANNELS 3 Zrotation Xrotation Yrotation
                                JOINT LeftFinger11
                                {
                                    OFFSET   4.646930   0.000000   0.000000
                                    CHANNELS 3 Zrotation Xrotation Yrotation
                                    JOINT LeftFinger12
                                    {
                                        OFFSET   2.323470   0.000000   0.000000
                                        CHANNELS 3 Zrotation Xrotation Yrotation
                                        End Site
                                        {
                                            OFFSET   2.273050   0.000000   0.000000
                                        }
                                    }
                                }
                            }
                            JOINT LeftFinger2
                            {
                                OFFSET   8.364490   0.000016   1.078090
                                CHANNELS 3 Zrotation Xrotation Yrotation
                                JOINT LeftFinger21
                                {
                                    OFFSET   5.111610   0.000000   0.000000
                                    CHANNELS 3 Zrotation Xrotation Yrotation
                                    JOINT LeftFinger22
                                    {
                                        OFFSET   2.788150   0.000016   0.000000
                                        CHANNELS 3 Zrotation Xrotation Yrotation
                                        End Site
                                        {
                                            OFFSET   2.727660   0.000000   0.000000
                                        }
                                    }
                                }
                            }
                            JOINT LeftFinger3
                            {
                                OFFSET   7.899780   0.000015  -1.078090
                                CHANNELS 3 Zrotation Xrotation Yrotation
                                JOINT LeftFinger31
                                {
                                    OFFSET   4.646930   0.000000   0.000000
                                    CHANNELS 3 Zrotation Xrotation Yrotation
                                    JOINT LeftFinger32
                                    {
                                        OFFSET   2.323470   0.000000   0.000000
                                        CHANNELS 3 Zrotation Xrotation Yrotation
                                        End Site
                                        {
                                            OFFSET   2.273050   0.000000   0.000000
                                        }
                                    }
                                }
                            }
                            JOINT LeftFinger4
                            {
                                OFFSET   7.435090   0.000000  -3.252850
                                CHANNELS 3 Zrotation Xrotation Yrotation
                                JOINT LeftFinger41
                                {
                                    OFFSET   3.717550   0.000000   0.000000
                                    CHANNELS 3 Zrotation Xrotation Yrotation
                                    JOINT LeftFinger42
                                    {
                                        OFFSET   1.858770   0.000000   0.000000
                                        CHANNELS 3 Zrotation Xrotation Yrotation
                                        End Site
                                        {
                                            OFFSET   1.818440   0.000000   0.000000
                                        }
                                    }
                                }
                            }
                        }
                    }
                }
            }
            JOINT RightCollar
            {
                OFFSET  -3.911910  19.017000  -0.467062
                CHANNELS 3 Zrotation Xrotation Yrotation
                JOINT RightShoulder
                {
                    OFFSET -10.383700   0.000014   0.000000
                    CHANNELS 3 Zrotation Xrotation Yrotation
                    JOINT RightElbow
                    {
                        OFFSET -26.662100   0.001225   0.001091
                        CHANNELS 3 Zrotation Xrotation Yrotation
                        JOINT RightWrist
                        {
                            OFFSET -28.869000  -0.000020  -0.000085
                            CHANNELS 3 Zrotation Xrotation Yrotation
                            JOINT RightFinger0
                            {
                                OFFSET  -2.044650  -2.323490   3.252850
                                CHANNELS 3 Zrotation Xrotation Yrotation
                                JOINT RightFinger01
                                {
                                    OFFSET  -3.088130   0.000000   0.000000
                                    CHANNELS 3 Zrotation Xrotation Yrotation
                                    JOINT RightFinger02
                                    {
                                        OFFSET  -2.639460   0.000000   0.000000
                                        CHANNELS 3 Zrotation Xrotation Yrotation
                                        End Site
                                        {
                                            OFFSET  -2.582190   0.000000   0.000000
                                        }
                                    }
                                }
                            }
                            JOINT RightFinger1
                            {
                                OFFSET  -8.364480   0.000000   3.252850
                                CHANNELS 3 Zrotation Xrotation Yrotation
                                JOINT RightFinger11
                                {
                                    OFFSET  -4.646930   0.000000   0.000000
                                    CHANNELS 3 Zrotation Xrotation Yrotation
                                    JOINT RightFinger12
                                    {
                                        OFFSET  -2.323470   0.000000   0.000000
                                        CHANNELS 3 Zrotation Xrotation Yrotation
                                        End Site
                                        {
                                            OFFSET  -2.273050   0.000000   0.000000
                                        }
                                    }
                                }
                            }
                            JOINT RightFinger2
                            {
                                OFFSET  -8.364480   0.000000   1.078090
                                CHANNELS 3 Zrotation Xrotation Yrotation
                                JOINT RightFinger21
                                {
                                    OFFSET  -5.111620   0.000000   0.000000
                                    CHANNELS 3 Zrotation Xrotation Yrotation
                                    JOINT RightFinger22
                                    {
                                        OFFSET  -2.788160   0.000000   0.000000
                                        CHANNELS 3 Zrotation Xrotation Yrotation
                                        End Site
                                        {
                                            OFFSET  -2.727660   0.000000   0.000000
                                        }
                                    }
                                }
                            }
                            JOINT RightFinger3
                            {
                                OFFSET  -7.899780   0.000000  -1.078090
                                CHANNELS 3 Zrotation Xrotation Yrotation
                                JOINT RightFinger31
                                {
                                    OFFSET  -4.646930   0.000000   0.000000
                                    CHANNELS 3 Zrotation Xrotation Yrotation
                                    JOINT RightFinger32
                                    {
                                        OFFSET  -2.323470   0.000000   0.000000
                                        CHANNELS 3 Zrotation Xrotation Yrotation
                                        End Site
                                        {
                                            OFFSET  -2.273050   0.000000   0.000000
                                        }
                                    }
                                }
                            }
                            JOINT RightFinger4
                            {
                                OFFSET  -7.435090   0.000000  -3.252850
                                CHANNELS 3 Zrotation Xrotation Yrotation
                                JOINT RightFinger41
                                {
                                    OFFSET  -3.717550   0.000000   0.000000
                                    CHANNELS 3 Zrotation Xrotation Yrotation
                                    JOINT RightFinger42
                                    {
                                        OFFSET  -1.858760   0.000000   0.000000
                                        CHANNELS 3 Zrotation Xrotation Yrotation
                                        End Site
                                        {
                                            OFFSET  -1.818440   0.000000   0.000000
                                        }
                                    }
                                }
                            }
                        }
                    }
                }
            }
        }
    }
    JOINT LeftHip
    {
        OFFSET   9.783030   0.000000   0.000000
        CHANNELS 3 Zrotation Xrotation Yrotation
        JOINT LeftKnee
        {
            OFFSET   0.000063 -41.789100   0.000608
            CHANNELS 3 Zrotation Xrotation Yrotation
            JOINT LeftAnkle
            {
                OFFSET   0.000048 -41.133200  -0.000184
                CHANNELS 3 Zrotation Xrotation Yrotation
                JOINT LeftToe
                {
                    OFFSET   0.000000  -6.358960  14.674500
                    CHANNELS 3 Zrotation Xrotation Yrotation
                    End Site
                    {
                        OFFSET   0.000000   0.000000   3.913200
                    }
                }
            }
        }
    }
    JOINT RightHip
    {
        OFFSET  -9.783030   0.000000   0.000000
        CHANNELS 3 Zrotation Xrotation Yrotation
        JOINT RightKnee
        {
            OFFSET   0.000071 -41.789100   0.001239
            CHANNELS 3 Zrotation Xrotation Yrotation
            JOINT RightAnkle
            {
                OFFSET   0.000037 -41.133200  -0.000166
                CHANNELS 3 Zrotation Xrotation Yrotation
                JOINT RightToe
                {
                    OFFSET   0.000000  -6.358960  14.674500
                    CHANNELS 3 Zrotation Xrotation Yrotation
                    End Site
                    {
                        OFFSET   0.000000   0.000000   3.913200
                    }
                }
            }
        }
    }
}
MOTION
Frames: 4
Frame Time:   0.016667
  0.287880  89.537600  -1.261020  -2.590150  -5.411520  -5.599500   0.745964   4.144690   0.464397   1.463900   8.294980   0.877962   0.482384  -0.749375   0.001836   0.791631  -1.515200   5.092010  -7.211950  -0.977424  -0.313085 -72.522400  18.092200  -0.062833  -2.219200  -5.101990 -17.423500  16.470300 -15.193500   5.923440  44.547200  35.766200 -67.583100 -25.735500   0.003845   0.001931  -7.868070   0.001508  -0.000934 -27.816700   5.136840  -9.631240 -23.106500  -0.001348   0.001544 -16.189700  -0.012866   0.000776 -28.160400   0.262845  -0.505455 -33.193000   0.001479   0.005396 -22.106500  -0.000663   0.003804 -27.891800   0.260514  -0.506733 -31.371200  -0.006660  -0.000491 -20.893200  -0.001834  -0.001254 -29.720800   0.287744  -0.497951 -44.580100  -0.009723  -0.003266 -29.692300   0.000343  -0.003700  11.959500   0.670064   6.321410  68.230000  11.465900  -7.315610  -1.525060  -5.118700  15.763900 -12.486300  -9.167450   2.991160 -43.264900  39.056100  72.788600  30.185200  -0.007913  -0.001713  10.092600  -0.007864  -0.005182  31.064900   8.153930  13.248800  26.192800   0.002260  -0.000846  18.334900   0.002514  -0.004480  28.480200   3.190930   5.858280  38.044800  -0.005918   0.006565  25.337900   0.006613   0.005626  28.206500   2.220190   4.132260  34.050900  -0.008539   0.008288  22.677900   0.000954   0.007291  35.082200   0.219664   0.312689  52.624200   0.004460   0.002790  35.047700  -0.002067  -0.000651   1.450830   8.847080   2.664960   0.919960   0.198372   4.428330  -1.111660  -3.972840   2.275570   0.000000   0.000000  -0.000000   2.579790   6.924660  -3.751660  -0.378840   1.600430  -1.849790  -1.663510  -3.803050   1.427420  -0.000000   0.000000  -0.000000
  0.294750  89.537600  -1.251090  -2.595500  -5.418370  -5.608950   0.746829   4.145270   0.472580   1.465030   8.296230   0.894318   0.480695  -0.745612   0.001847   0.789304  -1.509410   5.098420  -7.212060  -0.981746  -0.318302 -72.526900  18.092700  -0.062682  -2.219470  -5.103810 -17.419500  16.478600 -15.200200   5.931570  44.544900  35.768700 -67.581600 -25.744800   0.003850   0.001925  -7.868020   0.001493  -0.000928 -27.818600   5.132130  -9.621570 -23.110000  -0.001338   0.001556 -16.189700  -0.012864   0.000787 -28.160400   0.262845  -0.498135 -33.190000   0.001503   0.005428 -22.104500  -0.000658   0.003832 -27.891800   0.260515  -0.499396 -31.368300  -0.006704  -0.000485 -20.891300  -0.001823  -0.001248 -29.720700   0.287946  -0.490759 -44.574000  -0.009746  -0.003235 -29.692100   0.000331  -0.003679  12.008100   0.610342   6.370660  68.248900  11.495400  -7.389310  -1.547660  -5.220130  15.778700 -12.431400  -9.127490   2.994350 -43.231100  39.026900  72.751500  30.189400  -0.007918  -0.001729  10.094700  -0.007865  -0.005150  31.078100   8.126390  13.198200  26.197900   0.002244  -0.000809  18.338500   0.002516  -0.004450  28.483000   3.165170   5.810660  38.035900  -0.005957   0.006593  25.332000   0.006607   0.005653  28.207600   2.189680   4.075700  34.047000  -0.008582   0.008310  22.675300   0.000952   0.007317  35.085300   0.218985   0.311567  52.628700   0.004437   0.002832  35.050700  -0.002033  -0.000605   1.450330   8.855510   2.665020   0.912798   0.213291   4.428280  -1.111360  -3.988170   2.284400   0.000000   0.000000   0.000000   2.581400   6.931400  -3.756770  -0.380358   1.610260  -1.840040  -1.658320  -3.810660   1.432490   0.000000   0.000000  -0.000000
  0.306269  89.537500  -1.234420  -2.605460  -5.433330  -5.622690   0.750494   4.147080   0.490575   1.471060   8.300090   0.930158   0.475909  -0.739203   0.001857   0.782221  -1.498710   5.104820  -7.212350  -0.988218  -0.333591 -72.538200  18.095700  -0.062468  -2.221050  -5.111110 -17.411400  16.490300 -15.206800   5.943200  44.540200  35.772700 -67.582900 -25.754100   0.003870   0.001919  -7.867960   0.001445  -0.000904 -27.821800   5.127420  -9.611890 -23.116300  -0.001316   0.001588 -16.189700  -0.012861   0.000813 -28.160400   0.262847  -0.490815 -33.187000   0.001561   0.005511 -22.102600  -0.000644   0.003900 -27.891800   0.260515  -0.492060 -31.365500  -0.006812  -0.000473 -20.889400  -0.001795  -0.001233 -29.720500   0.288148  -0.483566 -44.568000  -0.009799  -0.003158 -29.691900   0.000294  -0.003629  12.092100   0.494007   6.442390  68.292100  11.535100  -7.568380  -1.651410  -5.367770  15.867500 -12.358500  -9.037020   2.997120 -43.197400  38.997700  72.714500  30.215600  -0.007923  -0.001751  10.107800  -0.007867  -0.005086  31.095300   8.081260  13.120100  26.203100   0.002208  -0.000721  18.342200   0.002518  -0.004379  28.482200   3.128190   5.743520  37.973600  -0.006037   0.006652  25.290500   0.006592   0.005711  28.201300   2.159160   4.019140  34.019600  -0.008674   0.008358  22.657100   0.000946   0.007371  35.088300   0.218306   0.310445  52.633300   0.004382   0.002922  35.053800  -0.001954  -0.000501   1.449280   8.875870   2.665190   0.903322   0.231303   4.428190  -1.113590  -4.009650   2.293240  -0.000000   0.000000  -0.000000   2.584000   6.947650  -3.764200  -0.383110   1.625100  -1.830300  -1.649220  -3.823910   1.441610   0.000000   0.000000   0.000000
  0.315450  89.537400  -1.220940  -2.616190  -5.452230  -5.630360   0.758157   4.149490   0.513870   1.484720   8.305260   0.976347   0.467908  -0.732385   0.001850   0.769189  -1.484830   5.081970  -7.213920  -0.991721  -0.356993 -72.554600  18.132000  -0.062375  -2.225460  -5.131240 -17.398600  16.495300 -15.204700   5.949180  44.539000  35.774000 -67.597800 -25.751400   0.003913   0.001954  -7.867940   0.001357  -0.000856 -27.829400   5.133520  -9.620650 -23.123900  -0.001291   0.001639 -16.189700  -0.012859   0.000857 -28.160400   0.267469  -0.499173 -33.197500   0.001649   0.005641 -22.110100  -0.000623   0.004002 -27.891700   0.265099  -0.500439 -31.373500  -0.006979  -0.000454 -20.895800  -0.001753  -0.001212 -29.720500   0.288097  -0.491786 -44.574200  -0.009876  -0.003038 -29.691900   0.000230  -0.003555  12.171600   0.363672   6.483110  68.369900  11.548600  -7.821730  -1.837440  -5.450780  16.157000 -12.365300  -8.950300   2.811380 -43.290400  39.154400  72.759400  30.299700  -0.007919  -0.001756  10.149900  -0.007883  -0.005010  31.083900   8.038510  13.060900  26.186400   0.002158  -0.000588  18.330600   0.002516  -0.004273  28.469200   3.109120   5.712980  37.772400  -0.006142   0.006734  25.156500   0.006571   0.005791  28.178300   2.164650   4.030580  33.860100  -0.008798   0.008431  22.551000   0.000938   0.007446  35.014700   0.235424   0.335820  52.523100   0.004299   0.003044  34.980400  -0.001839  -0.000355   1.450500   8.906350   2.668890   0.900709   0.233789   4.428050  -1.117870  -4.018940   2.293060  -0.000000   0.000000  -0.000000   2.586090   6.970300  -3.768340  -0.386244   1.634190  -1.831290  -1.641030  -3.835740   1.450230  -0.000000   0.000000   0.000000
